<svg width="40" height="40" viewBox="0 0 40 40" fill="none" xmlns="http://www.w3.org/2000/svg">
  <!-- White circle background with subtle border -->
  <circle cx="20" cy="20" r="18" fill="white" stroke="#e5e7eb" stroke-width="2"/>
  
  <!-- Phone handset -->
  <path d="M10 16.5c0-1.1.9-2 2-2h1.5c.3 0 .6.2.7.5l1 2.5c.1.2 0 .5-.2.7l-1 1c.5 1.2 1.4 2.1 2.6 2.6l1-1c.2-.2.5-.3.7-.2l2.5 1c.3.1.5.4.5.7V23c0 1.1-.9 2-2 2-5.5 0-10-4.5-10-10z" fill="#1e3a8a"/>
  
  <!-- Speech bubble -->
  <rect x="18" y="8" width="14" height="10" rx="2" fill="#1e3a8a"/>
  <path d="M18 18l3-2v2h-3z" fill="#1e3a8a"/>
  
  <!-- Text lines in speech bubble -->
  <line x1="20" y1="11" x2="29" y2="11" stroke="white" stroke-width="1.2"/>
  <line x1="20" y1="13" x2="27" y2="13" stroke="white" stroke-width="1.2"/>
  <line x1="20" y1="15" x2="30" y2="15" stroke="white" stroke-width="1.2"/>
  
  <!-- Signal waves -->
  <path d="M29 10c1.5 0 3-1.5 3-3" stroke="#1e3a8a" stroke-width="1.8" fill="none" stroke-linecap="round"/>
  <path d="M31 8c1 0 2-1 2-2" stroke="#1e3a8a" stroke-width="1.8" fill="none" stroke-linecap="round"/>
  <path d="M33 6c0.5 0 1-0.5 1-1" stroke="#1e3a8a" stroke-width="1.8" fill="none" stroke-linecap="round"/>
  
  <!-- Checkmark box -->
  <rect x="23" y="22" width="10" height="8" rx="1.5" fill="#1e3a8a"/>
  <path d="M25.5 26l2 2 4-4" stroke="white" stroke-width="2" fill="none" stroke-linecap="round" stroke-linejoin="round"/>
  
  <!-- Cursor pointer -->
  <path d="M21 30l3-1.5 1 3-2 0.5z" fill="#1e3a8a"/>
</svg>